<svg width="24" height="25" viewBox="0 0 24 25" fill="none" xmlns="http://www.w3.org/2000/svg">
<g clip-path="url(#clip0_10494_9158)">
<path d="M7.80953 15.3333L5.72121 14.3359L3.95808 18.6898C3.95259 18.7036 3.94728 18.7175 3.9427 18.7314C3.71877 19.4032 3.76857 20.0137 4.08315 20.4498C4.35579 20.8283 4.79414 21.0369 5.31746 21.0369H5.31764C5.56538 21.0369 5.83162 20.99 6.10884 20.8975C6.12294 20.8929 6.13686 20.8878 6.15041 20.8823L10.5043 19.1192L9.5071 17.0307C9.24031 16.4724 8.36781 15.5999 7.80953 15.3333Z" fill="white"/>
<path d="M23.9439 1.89062L10.2344 15.6001C10.462 15.8804 10.6515 16.1642 10.776 16.4246L14.2559 23.7115C14.7234 24.6904 15.3397 24.8365 15.6653 24.8365H15.6655C15.9564 24.8365 16.6751 24.71 17.066 23.5374L23.8646 3.14178C24.0169 2.68439 24.0422 2.25555 23.9439 1.89062Z" fill="white"/>
<path d="M9.23618 14.6053L22.9464 0.895081C22.8026 0.856079 22.6485 0.835938 22.4861 0.835938C22.2379 0.835938 21.9717 0.882812 21.6945 0.975281L1.2991 7.77362C0.220064 8.13342 0.0234092 8.76147 0.00216899 9.1037C-0.0190712 9.44611 0.0986656 10.0936 1.12497 10.5836L8.41184 14.0637C8.67203 14.1882 8.95584 14.3777 9.23618 14.6053Z" fill="white"/>
</g>
<defs>
<clipPath id="clip0_10494_9158">
<rect width="24" height="24" fill="white" transform="translate(0 0.835938)"/>
</clipPath>
</defs>
</svg>
