<svg width="20" height="21" viewBox="0 0 20 21" fill="none" xmlns="http://www.w3.org/2000/svg">
<g clip-path="url(#clip0_10499_52029)">
<path d="M20 10.8359C20 5.30905 15.5275 0.835938 10 0.835938C4.47311 0.835938 0 5.30844 0 10.8359C0 16.3138 4.43512 20.8359 10 20.8359C15.542 20.8359 20 16.339 20 10.8359ZM10 2.00781C14.8679 2.00781 18.8281 5.96808 18.8281 10.8359C18.8281 12.6166 18.2985 14.3282 17.3163 15.778C13.3722 11.5354 6.63498 11.5278 2.68372 15.778C1.70151 14.3282 1.17188 12.6166 1.17188 10.8359C1.17188 5.96808 5.13214 2.00781 10 2.00781ZM3.41461 16.7148C6.92139 12.7814 13.0795 12.7823 16.5852 16.7148C13.0667 20.6513 6.93466 20.6525 3.41461 16.7148Z" fill="#2F87FF"/>
<path d="M10 11.4219C11.9385 11.4219 13.5156 9.84473 13.5156 7.90625V6.73438C13.5156 4.7959 11.9385 3.21875 10 3.21875C8.06152 3.21875 6.48438 4.7959 6.48438 6.73438V7.90625C6.48438 9.84473 8.06152 11.4219 10 11.4219ZM7.65625 6.73438C7.65625 5.44196 8.70758 4.39062 10 4.39062C11.2924 4.39062 12.3438 5.44196 12.3438 6.73438V7.90625C12.3438 9.19867 11.2924 10.25 10 10.25C8.70758 10.25 7.65625 9.19867 7.65625 7.90625V6.73438Z" fill="#2F87FF"/>
</g>
<defs>
<clipPath id="clip0_10499_52029">
<rect width="20" height="20" fill="white" transform="translate(0 0.835938)"/>
</clipPath>
</defs>
</svg>
