<svg width="147" height="48" viewBox="0 0 147 48" fill="none" xmlns="http://www.w3.org/2000/svg">
<mask id="mask0_1219_17939" style="mask-type:alpha" maskUnits="userSpaceOnUse" x="0" y="2" width="45" height="45">
<circle cx="22.3811" cy="24.6154" r="22.3811" fill="#C4C4C4"/>
</mask>
<g mask="url(#mask0_1219_17939)">
<path d="M8.625 42.2993L16.6385 37.8886L45.0898 22.2109C45.0898 22.2109 45.3081 33.1285 41.5961 36.6222L8.625 42.2993Z" fill="#131A3F"/>
<path d="M8.625 42.2969L33.5171 44.262C33.5171 44.262 30.6785 47.5373 24.3463 48.1924C18.0141 48.8474 9.0617 45.1354 9.0617 45.1354L8.625 42.2969Z" fill="#010033"/>
<path d="M41.5968 36.4036L17.0104 37.8665L4.69531 38.5871L8.62565 42.2991L33.5178 44.2643C33.5178 44.2643 43.8895 38.6963 42.361 37.3862C40.8325 36.076 41.5968 36.4036 41.5968 36.4036Z" fill="#002054"/>
<path d="M17.0244 38.0469C14.1858 39.5098 11.3472 40.951 8.50866 42.4139C7.24222 41.1475 5.95394 39.8592 4.6875 38.5928C8.44315 38.4181 12.177 38.2216 15.9326 38.0469C16.3038 38.0469 16.6532 38.0469 17.0244 38.0469Z" fill="#37649B"/>
<path d="M44.1044 17.7363C43.5803 15.8148 42.2047 11.8408 38.6019 8.2598C37.2481 6.92786 33.2741 3.80543 27.6188 2.56082C13.6443 -0.496106 7.09375 8.01962 7.09375 8.01962C13.4696 10.0285 19.8237 12.0155 26.1995 14.0243C28.7106 12.4522 31.2216 10.9019 33.7327 9.32973C34.5406 10.5525 35.6542 12.0155 37.2263 13.4566C39.7592 15.7711 42.3357 17.0375 44.1044 17.7363Z" fill="#B1D3FF"/>
<path d="M7.22083 8.01562C13.553 10.0245 19.8852 12.0115 26.1956 14.0203C23.4662 15.6143 20.7368 17.2301 17.9856 18.824C12.1993 18.4528 6.41293 18.1035 0.648438 17.7323C1.12881 16.444 1.8057 14.9374 2.78829 13.3216C4.25124 10.9415 5.88888 9.21656 7.22083 8.01562Z" fill="#FFECD9"/>
<path d="M0.76429 17.4062C0.76429 17.4062 -1.92144 27.1229 0.196576 28.171C2.29275 29.1972 18.1888 18.2797 18.1888 18.2797L1.20099 17.4281H0.76429V17.4062Z" fill="#FFE6DC"/>
<path d="M-0.854453 28.26C8.09797 23.5217 17.0286 18.7617 25.981 14.0234C17.4871 19.9844 9.01505 25.9673 0.521164 31.9283C0.521164 31.9283 -1.07281 29.4172 -0.854453 28.26Z" fill="#FEFFFD"/>
<path d="M0.975841 31.6006L26.0863 13.9141C23.0731 21.9494 20.038 30.0066 17.0247 38.0419C12.9197 38.2166 8.79284 38.4131 4.68782 38.5878C4.68782 38.5878 -0.33427 32.474 0.975841 31.6006Z" fill="#2F80ED"/>
<path d="M26.0929 13.9121L40.9408 22.2094L34.6086 12.8203L44.2161 17.8424C44.7183 20.7465 44.9803 22.3186 44.9803 22.3186C44.9803 22.3186 35.1981 27.8211 17.0312 38.04C20.0445 30.0046 23.0796 21.9474 26.0929 13.9121Z" fill="#9DE6E8"/>
<path d="M33.8452 9.21875C36.3126 11.577 38.78 13.9351 41.2692 16.2933C39.0857 15.0924 36.9022 13.9133 34.7186 12.7124C36.8367 15.9222 38.9328 19.1101 41.0509 22.3199C36.0724 19.525 31.0722 16.7082 26.0938 13.9133C28.6703 12.3412 31.2687 10.7909 33.8452 9.21875Z" fill="#FEFEFE"/>
</g>
<path d="M56.7757 6.46875H57.7146L64.156 21.7097H62.9987L60.9244 16.6876H53.5659L51.4916 21.7097H50.3125L56.7757 6.46875ZM60.5532 15.7705L57.2561 7.8007L53.9371 15.7705H60.5532Z" fill="black"/>
<path d="M70.7734 21.6941V6.45312H77.1056C77.7607 6.45312 78.3502 6.58414 78.8961 6.868C79.442 7.13002 79.9005 7.50122 80.2936 7.95976C80.6866 8.4183 80.9923 8.9205 81.2107 9.46638C81.429 10.0341 81.5382 10.6018 81.5382 11.1914C81.5382 11.9556 81.3853 12.6543 81.0796 13.3094C80.7739 13.9644 80.3591 14.5103 79.835 14.9688C79.2892 15.4056 78.6778 15.6894 77.9572 15.7768L81.7565 21.6941H80.4901L76.8 15.9514H71.8652V21.6941H70.7734V21.6941ZM71.8652 14.947H77.2148C77.8699 14.947 78.4376 14.7723 78.9398 14.4011C79.4202 14.0518 79.7914 13.5714 80.0752 13.0037C80.3373 12.436 80.4683 11.8246 80.4683 11.1695C80.4683 10.5145 80.3154 9.90309 80.0097 9.33537C79.704 8.76766 79.2892 8.30912 78.7869 7.95976C78.2847 7.6104 77.717 7.43571 77.0838 7.43571H71.887V14.947H71.8652Z" fill="black"/>
<path d="M87.9375 13.9596C87.9375 13.0425 88.0903 12.1473 88.4179 11.2521C88.7454 10.3568 89.2039 9.54892 89.8153 8.80652C90.4267 8.06412 91.1909 7.47457 92.0862 7.03787C92.9814 6.60116 94.0077 6.38281 95.1431 6.38281C96.4969 6.38281 97.6542 6.6885 98.6149 7.32172C99.5757 7.93311 100.296 8.74101 100.755 9.72359L99.8595 10.2476C99.5101 9.54892 99.0516 8.9812 98.5494 8.56633C98.0254 8.15146 97.4576 7.84577 96.8681 7.67109C96.2567 7.49641 95.6672 7.40907 95.0558 7.40907C94.095 7.40907 93.2434 7.60558 92.5011 7.99861C91.7587 8.39165 91.1254 8.89386 90.6014 9.54891C90.0773 10.1821 89.7061 10.9027 89.4223 11.6888C89.1603 12.4748 89.0293 13.2609 89.0293 14.0688C89.0293 14.964 89.1821 15.8156 89.5096 16.6235C89.8153 17.4314 90.252 18.152 90.7979 18.7852C91.3438 19.4184 91.9988 19.9206 92.7194 20.2918C93.4618 20.663 94.2479 20.8595 95.1213 20.8595C95.7327 20.8595 96.3659 20.7504 96.9991 20.5538C97.6323 20.3573 98.2219 20.0298 98.7896 19.5931C99.3573 19.1564 99.794 18.5887 100.143 17.89L101.082 18.3485C100.755 19.1127 100.253 19.7459 99.5975 20.27C98.9424 20.794 98.2 21.2089 97.414 21.4709C96.6061 21.7329 95.82 21.8858 95.0339 21.8858C94.0077 21.8858 93.0469 21.6674 92.1735 21.2089C91.3001 20.7504 90.5359 20.1608 89.9027 19.3966C89.2694 18.6542 88.7672 17.8026 88.4397 16.8637C88.1122 15.8593 87.9375 14.9204 87.9375 13.9596Z" fill="black"/>
<path d="M118.72 7.45133H113.152V21.6879H112.06V7.45133H106.492V6.46875H118.742V7.45133H118.72Z" fill="black"/>
<path d="M125.383 21.6941V6.45312H126.475V21.6941H125.383Z" fill="black"/>
<path d="M133.703 13.9596C133.703 13.0425 133.856 12.1473 134.184 11.2521C134.511 10.3568 134.97 9.54892 135.581 8.80652C136.192 8.06412 136.957 7.47457 137.852 7.03787C138.747 6.60116 139.773 6.38281 140.909 6.38281C142.263 6.38281 143.42 6.6885 144.381 7.32172C145.341 7.93311 146.062 8.74101 146.52 9.72359L145.625 10.2476C145.276 9.54892 144.817 8.9812 144.315 8.56633C143.791 8.15146 143.223 7.84577 142.634 7.67109C142.022 7.49641 141.433 7.40907 140.821 7.40907C139.861 7.40907 139.009 7.60558 138.267 7.99861C137.524 8.39165 136.891 8.89386 136.367 9.54891C135.843 10.1821 135.472 10.9027 135.188 11.6888C134.926 12.4748 134.795 13.2609 134.795 14.0688C134.795 14.964 134.948 15.8156 135.275 16.6235C135.581 17.4314 136.018 18.152 136.564 18.7852C137.109 19.4184 137.764 19.9206 138.485 20.2918C139.227 20.663 140.013 20.8595 140.887 20.8595C141.498 20.8595 142.132 20.7504 142.765 20.5538C143.398 20.3573 143.988 20.0298 144.555 19.5931C145.123 19.1564 145.56 18.5887 145.909 17.89L146.848 18.3485C146.52 19.1127 146.018 19.7459 145.363 20.27C144.708 20.794 143.966 21.2089 143.18 21.4709C142.372 21.7329 141.586 21.8858 140.8 21.8858C139.773 21.8858 138.813 21.6674 137.939 21.2089C137.066 20.7504 136.302 20.1608 135.668 19.3966C135.035 18.6542 134.533 17.8026 134.205 16.8637C133.878 15.8593 133.703 14.9204 133.703 13.9596Z" fill="black"/>
<path d="M62.6496 27.8888H57.0816V42.1254H55.9898V27.8888H50.4219V26.9062H62.6714V27.8888H62.6496Z" fill="black"/>
<path d="M69.7913 26.9062H70.7303L77.1716 42.1472H76.0144L73.94 37.1251H66.5816L64.5072 42.1472H63.3281L69.7913 26.9062ZM73.5688 36.2299L70.2717 28.26L66.9528 36.2299H73.5688Z" fill="black"/>
<path d="M79.4844 42.1472V26.9062H80.5761V41.1428H89.6814V42.1254H79.4844V42.1472Z" fill="black"/>
<path d="M102.106 41.1646V42.1472H91.9531V26.9062H101.91V27.8888H93.0449V33.8935H100.796V34.8324H93.0449V41.1646H102.106Z" fill="black"/>
<path d="M106.17 28.9588V42.1472H105.078V26.9062H105.973L116.585 40.3131V26.9062H117.677V42.1472H116.607L106.17 28.9588Z" fill="black"/>
<path d="M132.306 27.8888H126.738V42.1254H125.646V27.8888H120.078V26.9062H132.328V27.8888H132.306Z" fill="black"/>
<path d="M143.524 29.4357C143.284 29.1737 143 28.9335 142.716 28.7152C142.41 28.5187 142.104 28.344 141.755 28.1911C141.406 28.0601 141.035 27.9509 140.642 27.8854C140.248 27.8199 139.812 27.7763 139.353 27.7763C137.868 27.7763 136.777 28.0601 136.1 28.6278C135.423 29.1955 135.074 29.9598 135.074 30.8987C135.074 31.5319 135.226 32.056 135.532 32.4271C135.838 32.7983 136.318 33.104 136.973 33.3442C137.628 33.5626 138.48 33.8028 139.528 33.9993C140.62 34.2176 141.58 34.5015 142.388 34.8072C143.196 35.1129 143.808 35.5278 144.244 36.0518C144.681 36.5758 144.899 37.2964 144.899 38.1916C144.899 38.8685 144.768 39.4581 144.506 39.9603C144.244 40.4625 143.873 40.8774 143.393 41.2049C142.912 41.5324 142.323 41.7726 141.668 41.9473C141.013 42.122 140.27 42.2093 139.441 42.2093C138.655 42.2093 137.912 42.122 137.192 41.9473C136.471 41.7726 135.794 41.5324 135.183 41.2049C134.549 40.8774 133.96 40.4625 133.414 39.9385L134.004 39.0651C134.309 39.4144 134.68 39.7201 135.074 39.9821C135.467 40.2442 135.903 40.4625 136.362 40.659C136.82 40.8555 137.323 40.9865 137.847 41.0957C138.371 41.2049 138.917 41.2486 139.506 41.2486C140.838 41.2486 141.886 41.0084 142.629 40.5062C143.371 40.004 143.764 39.2834 143.764 38.3008C143.764 37.6239 143.589 37.078 143.24 36.6632C142.891 36.2483 142.366 35.8989 141.646 35.6369C140.925 35.3749 140.03 35.1347 138.96 34.8945C137.89 34.6762 136.973 34.4141 136.231 34.1303C135.488 33.8464 134.921 33.4534 134.528 32.973C134.156 32.4927 133.96 31.8376 133.96 31.0079C133.96 30.0908 134.178 29.3266 134.637 28.6933C135.095 28.0601 135.729 27.5797 136.536 27.2522C137.344 26.9247 138.283 26.75 139.353 26.75C140.008 26.75 140.62 26.8155 141.187 26.9465C141.755 27.0775 142.279 27.274 142.76 27.5361C143.24 27.7981 143.677 28.1256 144.091 28.5405L143.524 29.4357Z" fill="black"/>
</svg>
