<svg width="29" height="26" viewBox="0 0 29 26" fill="none" xmlns="http://www.w3.org/2000/svg">
<g clip-path="url(#clip0_10480_32981)">
<path d="M25.4598 3.82031H3.54624C1.59011 3.82031 0 5.1911 0 6.87742V19.7887C0 21.475 1.59011 22.8458 3.54624 22.8458H25.4538C27.4099 22.8458 29 21.475 29 19.7887V6.88259C29.006 5.19627 27.4159 3.82031 25.4598 3.82031ZM27.3859 19.7887C27.3859 20.7042 26.5218 21.4491 25.4598 21.4491H3.54624C2.48417 21.4491 1.62011 20.7042 1.62011 19.7887V6.88259C1.62011 5.96701 2.48417 5.22213 3.54624 5.22213H25.4538C26.5158 5.22213 27.3799 5.96701 27.3799 6.88259V19.7887H27.3859Z" fill="#2F87FF"/>
<path d="M18.2876 13.1751L25.3801 7.69199C25.7102 7.43335 25.7402 6.99366 25.4401 6.70399C25.1401 6.41949 24.6301 6.39362 24.2941 6.65226L14.5134 14.22L12.6052 12.751C12.5992 12.7458 12.5932 12.7406 12.5932 12.7354C12.5512 12.6992 12.5092 12.6682 12.4612 12.6372L4.6967 6.64709C4.36068 6.38845 3.85064 6.41431 3.55062 6.70399C3.2506 6.99366 3.2806 7.43335 3.61663 7.69199L10.7931 13.2217L3.64663 18.9893C3.32261 19.2531 3.3046 19.6928 3.61063 19.9773C3.77264 20.1222 3.98865 20.1997 4.20467 20.1997C4.40268 20.1997 4.60069 20.1377 4.7567 20.0135L12.0112 14.1631L13.9793 15.6787C14.1354 15.7977 14.3274 15.8546 14.5194 15.8546C14.7114 15.8546 14.9094 15.7925 15.0594 15.6736L17.0816 14.1114L24.2941 20.0187C24.4501 20.148 24.6541 20.2101 24.8521 20.2101C25.0681 20.2101 25.2781 20.1377 25.4401 19.9928C25.7462 19.7135 25.7342 19.2686 25.4101 19.0048L18.2876 13.1751Z" fill="#2F87FF"/>
</g>
<defs>
<clipPath id="clip0_10480_32981">
<rect width="29" height="25" fill="white" transform="translate(0 0.835938)"/>
</clipPath>
</defs>
</svg>
